<?xml version='1.0' encoding='UTF-8' standalone='no'?>
<!-- Created with Inkscape (http://www.inkscape.org/) -->
<svg xmlns="http://www.w3.org/2000/svg" width="50.279114" version="1.1" height="46.66" id="svg4097">
 <defs  id="defs4099">
  <linearGradient  osb:paint="solid" xmlns:osb="http://www.openswatchbook.org/uri/2009/osb" id="linearGradient5274">
   <stop  offset="0" style="stop-color:#9d6c6c;stop-opacity:1;" id="stop5276"/>
  </linearGradient>
 </defs>
 <sodipodi:namedview xmlns:sodipodi="http://sodipodi.sourceforge.net/DTD/sodipodi-0.dtd" fit-margin-top="0" fit-margin-left="0" showgrid="true" fit-margin-bottom="0" pagecolor="#ffffff" bordercolor="#666666" id="base" borderopacity="1.0" showguides="true" fit-margin-right="0">
  <inkscape:grid xmlns:inkscape="http://www.inkscape.org/namespaces/inkscape" empspacing="5" snapvisiblegridlinesonly="true" enabled="true" visible="true" type="xygrid" id="grid4109" originx="-29.454398px" originy="-984.37567px"/>
 </sodipodi:namedview>
 <metadata  id="metadata4102">
  <rdf:RDF xmlns:rdf="http://www.w3.org/1999/02/22-rdf-syntax-ns#">
   <cc:Work xmlns:cc="http://creativecommons.org/ns#" rdf:about="" xmlns:rdf="http://www.w3.org/1999/02/22-rdf-syntax-ns#">
    <dc:format xmlns:dc="http://purl.org/dc/elements/1.1/">image/svg+xml</dc:format>
    <dc:type xmlns:dc="http://purl.org/dc/elements/1.1/" rdf:resource="http://purl.org/dc/dcmitype/StillImage" xmlns:rdf="http://www.w3.org/1999/02/22-rdf-syntax-ns#"/>
    <dc:title xmlns:dc="http://purl.org/dc/elements/1.1/"/>
   </cc:Work>
  </rdf:RDF>
 </metadata>
 <g  id="layer1" transform="translate(-29.454398,-21.326521)">
  <circle  cx="25.200001" cy="39.599998" connectorname="INT1" style="fill:none;stroke:#ffffff;stroke-width:1.22399998;stroke-opacity:1" id="circle4645" r="2.052" d="m 27.252001,39.599998 c 0,1.133289 -0.918712,2.052001 -2.052,2.052001 -1.133289,0 -2.052,-0.918712 -2.052,-2.052001 0,-1.133288 0.918711,-2.052 2.052,-2.052 1.133288,0 2.052,0.918712 2.052,2.052 z" transform="matrix(0,1.25,-1.25,0,82.284396,-6.8434803)"/>
  <circle  cx="25.200001" cy="39.599998" connectorname="INT1" style="fill:none;stroke:#ffffff;stroke-width:1.22399998;stroke-opacity:1" r="2.052" id="circle4647" d="m 27.252001,39.599998 c 0,1.133289 -0.918712,2.052001 -2.052,2.052001 -1.133289,0 -2.052,-0.918712 -2.052,-2.052001 0,-1.133288 0.918711,-2.052 2.052,-2.052 1.133288,0 2.052,0.918712 2.052,2.052 z" transform="matrix(0,1.25,-1.25,0,82.284396,3.1565204)"/>
  <circle  cx="25.200001" cy="39.599998" connectorname="INT1" style="fill:none;stroke:#ffffff;stroke-width:1.22399998;stroke-opacity:1" id="circle4649" r="2.052" d="m 27.252001,39.599998 c 0,1.133289 -0.918712,2.052001 -2.052,2.052001 -1.133289,0 -2.052,-0.918712 -2.052,-2.052001 0,-1.133288 0.918711,-2.052 2.052,-2.052 1.133288,0 2.052,0.918712 2.052,2.052 z" transform="matrix(0,1.25,-1.25,0,82.284396,13.156521)"/>
  <circle  cx="25.200001" cy="39.599998" connectorname="INT1" style="fill:none;stroke:#ffffff;stroke-width:1.22399998;stroke-opacity:1" r="2.052" id="circle4651" d="m 27.252001,39.599998 c 0,1.133289 -0.918712,2.052001 -2.052,2.052001 -1.133289,0 -2.052,-0.918712 -2.052,-2.052001 0,-1.133288 0.918711,-2.052 2.052,-2.052 1.133288,0 2.052,0.918712 2.052,2.052 z" transform="matrix(0,1.25,-1.25,0,82.284396,23.15652)"/>
  <circle  cx="25.200001" cy="39.599998" connectorname="INT1" style="fill:none;stroke:#ffffff;stroke-width:1.22399998;stroke-opacity:1" id="circle4653" r="2.052" d="m 27.252001,39.599998 c 0,1.133289 -0.918712,2.052001 -2.052,2.052001 -1.133289,0 -2.052,-0.918712 -2.052,-2.052001 0,-1.133288 0.918711,-2.052 2.052,-2.052 1.133288,0 2.052,0.918712 2.052,2.052 z" transform="matrix(0,1.25,-1.25,0,82.284396,33.15652)"/>
  <g style="font-size:40px;font-style:normal;font-weight:normal;line-height:125%;letter-spacing:0px;word-spacing:0px;fill:#000000;fill-opacity:1;stroke:none;font-family:DroidSans" id="text3034" xml:space="preserve">
   <text x="71.354607" y="40.977039" style="font-size:4px;text-align:center;text-anchor:middle;fill:#ffffff;fill-opacity:1" id="tspan3040">LS20031</text>
  </g>
  <g style="font-size:40px;font-style:normal;font-weight:normal;line-height:125%;letter-spacing:0px;word-spacing:0px;fill:#000000;fill-opacity:1;stroke:none;font-family:DroidSans" id="text3810-1" xml:space="preserve">
   <text x="38.056717" y="25.862816" style="font-size:4px;fill:#ffffff;fill-opacity:1" id="tspan3812-5">3.3V</text>
  </g>
  <g style="font-size:40px;font-style:normal;font-weight:normal;line-height:125%;letter-spacing:0px;word-spacing:0px;fill:#000000;fill-opacity:1;stroke:none;font-family:DroidSans" id="text3810-1-5" xml:space="preserve">
   <text x="37.718506" y="36.009079" style="font-size:4px;fill:#ffffff;fill-opacity:1" id="tspan3812-5-4">RX</text>
  </g>
  <g style="font-size:40px;font-style:normal;font-weight:normal;line-height:125%;letter-spacing:0px;word-spacing:0px;fill:#000000;fill-opacity:1;stroke:none;font-family:DroidSans" id="text3810-1-5-1" xml:space="preserve">
   <text x="37.380299" y="46.155346" style="font-size:4px;fill:#ffffff;fill-opacity:1" id="tspan3812-5-4-9">TX</text>
  </g>
  <g style="font-size:40px;font-style:normal;font-weight:normal;line-height:125%;letter-spacing:0px;word-spacing:0px;fill:#000000;fill-opacity:1;stroke:none;font-family:DroidSans" id="text3810-1-5-1-7" xml:space="preserve">
   <text x="37.042088" y="55.625195" style="font-size:4px;fill:#ffffff;fill-opacity:1" id="tspan3812-5-4-9-0">GND</text>
  </g>
  <g style="font-size:40px;font-style:normal;font-weight:normal;line-height:125%;letter-spacing:0px;word-spacing:0px;fill:#000000;fill-opacity:1;stroke:none;font-family:DroidSans" id="text3810-1-5-1-7-8" xml:space="preserve">
   <text x="37.380299" y="65.43325" style="font-size:4px;fill:#ffffff;fill-opacity:1" id="tspan3812-5-4-9-0-5">GND</text>
  </g>
 </g>
</svg>
