<?xml version='1.0' encoding='UTF-8' standalone='no'?>
<!-- Created with Inkscape (http://www.inkscape.org/) -->
<svg xmlns="http://www.w3.org/2000/svg" width="100.27805" version="1.1" height="79.817284" id="svg4097">
 <defs  id="defs4099">
  <linearGradient  osb:paint="solid" xmlns:osb="http://www.openswatchbook.org/uri/2009/osb" id="linearGradient5274">
   <stop  offset="0" style="stop-color:#9d6c6c;stop-opacity:1;" id="stop5276"/>
  </linearGradient>
 </defs>
 <sodipodi:namedview xmlns:sodipodi="http://sodipodi.sourceforge.net/DTD/sodipodi-0.dtd" fit-margin-top="0" fit-margin-left="0" showgrid="true" fit-margin-bottom="0" pagecolor="#ffffff" bordercolor="#666666" id="base" borderopacity="1.0" showguides="true" fit-margin-right="0">
  <inkscape:grid xmlns:inkscape="http://www.inkscape.org/namespaces/inkscape" empspacing="5" snapvisiblegridlinesonly="true" enabled="true" visible="true" type="xygrid" id="grid4109" originx="-5.2661938px" originy="-965.72696px"/>
 </sodipodi:namedview>
 <metadata  id="metadata4102">
  <rdf:RDF xmlns:rdf="http://www.w3.org/1999/02/22-rdf-syntax-ns#">
   <cc:Work xmlns:cc="http://creativecommons.org/ns#" rdf:about="" xmlns:rdf="http://www.w3.org/1999/02/22-rdf-syntax-ns#">
    <dc:format xmlns:dc="http://purl.org/dc/elements/1.1/">image/svg+xml</dc:format>
    <dc:type xmlns:dc="http://purl.org/dc/elements/1.1/" rdf:resource="http://purl.org/dc/dcmitype/StillImage" xmlns:rdf="http://www.w3.org/1999/02/22-rdf-syntax-ns#"/>
    <dc:title xmlns:dc="http://purl.org/dc/elements/1.1/"/>
   </cc:Work>
  </rdf:RDF>
 </metadata>
 <g  id="layer1" transform="translate(-5.2661938,-6.8179483)">
  <rect  width="74.067451" x="24.459249" y="12.82086" height="62.400116" style="fill:#b82300;fill-opacity:1;fill-rule:evenodd;stroke:#000000;stroke-width:0.50672251px;stroke-linecap:butt;stroke-linejoin:miter;stroke-opacity:1" id="rect4105" clip-path="none"/>
  <circle  cx="25.200001" cy="39.599998" connectorname="INT1" style="fill:none;stroke:#ffffff;stroke-width:1.22399998;stroke-opacity:1" id="circle4645" r="2.052" d="m 27.252001,39.599998 c 0,1.133289 -0.918712,2.052001 -2.052,2.052001 -1.133289,0 -2.052,-0.918712 -2.052,-2.052001 0,-1.133288 0.918711,-2.052 2.052,-2.052 1.133288,0 2.052,0.918712 2.052,2.052 z" transform="matrix(0,1.25,-1.25,0,82.284396,-6.8434803)"/>
  <circle  cx="25.200001" cy="39.599998" connectorname="INT1" style="fill:none;stroke:#ffffff;stroke-width:1.22399998;stroke-opacity:1" r="2.052" id="circle4647" d="m 27.252001,39.599998 c 0,1.133289 -0.918712,2.052001 -2.052,2.052001 -1.133289,0 -2.052,-0.918712 -2.052,-2.052001 0,-1.133288 0.918711,-2.052 2.052,-2.052 1.133288,0 2.052,0.918712 2.052,2.052 z" transform="matrix(0,1.25,-1.25,0,82.284396,3.1565204)"/>
  <circle  cx="25.200001" cy="39.599998" connectorname="INT1" style="fill:none;stroke:#ffffff;stroke-width:1.22399998;stroke-opacity:1" id="circle4649" r="2.052" d="m 27.252001,39.599998 c 0,1.133289 -0.918712,2.052001 -2.052,2.052001 -1.133289,0 -2.052,-0.918712 -2.052,-2.052001 0,-1.133288 0.918711,-2.052 2.052,-2.052 1.133288,0 2.052,0.918712 2.052,2.052 z" transform="matrix(0,1.25,-1.25,0,82.284396,13.156521)"/>
  <circle  cx="25.200001" cy="39.599998" connectorname="INT1" style="fill:none;stroke:#ffffff;stroke-width:1.22399998;stroke-opacity:1" r="2.052" id="circle4651" d="m 27.252001,39.599998 c 0,1.133289 -0.918712,2.052001 -2.052,2.052001 -1.133289,0 -2.052,-0.918712 -2.052,-2.052001 0,-1.133288 0.918711,-2.052 2.052,-2.052 1.133288,0 2.052,0.918712 2.052,2.052 z" transform="matrix(0,1.25,-1.25,0,82.284396,23.15652)"/>
  <circle  cx="25.200001" cy="39.599998" connectorname="INT1" style="fill:none;stroke:#ffffff;stroke-width:1.22399998;stroke-opacity:1" id="circle4653" r="2.052" d="m 27.252001,39.599998 c 0,1.133289 -0.918712,2.052001 -2.052,2.052001 -1.133289,0 -2.052,-0.918712 -2.052,-2.052001 0,-1.133288 0.918711,-2.052 2.052,-2.052 1.133288,0 2.052,0.918712 2.052,2.052 z" transform="matrix(0,1.25,-1.25,0,82.284396,33.15652)"/>
  <rect  width="27.759893" x="63.997154" y="44.256954" height="25.478724" style="fill:#4b4b4b;fill-opacity:1;stroke:#ffffff;stroke-width:0.56091064;stroke-opacity:1" id="rect3052"/>
  <path  style="fill:#4b4b4b;fill-opacity:1;stroke:#ffffff;stroke-opacity:1" id="path3011" d="m 74.733803,20.544243 a 10,10 0 1 1 -20,0 10,10 0 1 1 20,0 z" transform="matrix(0.57196346,0,0,0.59899283,49.013704,12.012459)"/>
  <rect  width="11.846907" x="47.537498" y="44.987598" height="10.918573" style="fill:#4b4b4b;fill-opacity:1;stroke:#ffffff;stroke-width:0.23987301;stroke-opacity:1" id="rect3052-7"/>
  <g style="font-size:40px;font-style:normal;font-weight:normal;line-height:125%;letter-spacing:0px;word-spacing:0px;fill:#000000;fill-opacity:1;stroke:none;font-family:DroidSans" id="text3034" xml:space="preserve">
   <text x="77.780571" y="52.137932" style="font-size:4px;text-align:center;text-anchor:middle;fill:#ffffff;fill-opacity:1" id="tspan3036">LOCOSYS</text>
   <text x="77.780571" y="59.637932" style="font-size:4px;text-align:center;text-anchor:middle;fill:#ffffff;fill-opacity:1" id="tspan3038">MC-1513</text>
   <text x="77.780571" y="67.137932" style="font-size:4px;text-align:center;text-anchor:middle;fill:#ffffff;fill-opacity:1" id="tspan3040">1043</text>
  </g>
  <g style="font-size:40px;font-style:normal;font-weight:normal;line-height:125%;letter-spacing:0px;word-spacing:0px;fill:#000000;fill-opacity:1;stroke:none;font-family:DroidSans" id="text3810" xml:space="preserve">
   <text x="81.701393" y="17.640631" style="font-size:4px;fill:#ffffff;fill-opacity:1" id="tspan3812">BAT1</text>
  </g>
  <g style="font-size:40px;font-style:normal;font-weight:normal;line-height:125%;letter-spacing:0px;word-spacing:0px;fill:#000000;fill-opacity:1;stroke:none;font-family:DroidSans" id="text3810-1" xml:space="preserve">
   <text x="38.056717" y="25.862816" style="font-size:4px;fill:#ffffff;fill-opacity:1" id="tspan3812-5">3.3V</text>
  </g>
  <g style="font-size:40px;font-style:normal;font-weight:normal;line-height:125%;letter-spacing:0px;word-spacing:0px;fill:#000000;fill-opacity:1;stroke:none;font-family:DroidSans" id="text3810-1-5" xml:space="preserve">
   <text x="37.718506" y="36.009079" style="font-size:4px;fill:#ffffff;fill-opacity:1" id="tspan3812-5-4">RX</text>
  </g>
  <g style="font-size:40px;font-style:normal;font-weight:normal;line-height:125%;letter-spacing:0px;word-spacing:0px;fill:#000000;fill-opacity:1;stroke:none;font-family:DroidSans" id="text3810-1-5-1" xml:space="preserve">
   <text x="37.380299" y="46.155346" style="font-size:4px;fill:#ffffff;fill-opacity:1" id="tspan3812-5-4-9">TX</text>
  </g>
  <g style="font-size:40px;font-style:normal;font-weight:normal;line-height:125%;letter-spacing:0px;word-spacing:0px;fill:#000000;fill-opacity:1;stroke:none;font-family:DroidSans" id="text3810-1-5-1-7" xml:space="preserve">
   <text x="37.042088" y="55.625195" style="font-size:4px;fill:#ffffff;fill-opacity:1" id="tspan3812-5-4-9-0">GND</text>
  </g>
  <g style="font-size:40px;font-style:normal;font-weight:normal;line-height:125%;letter-spacing:0px;word-spacing:0px;fill:#000000;fill-opacity:1;stroke:none;font-family:DroidSans" id="text3810-1-5-1-7-8" xml:space="preserve">
   <text x="37.380299" y="65.43325" style="font-size:4px;fill:#ffffff;fill-opacity:1" id="tspan3812-5-4-9-0-5">GND</text>
  </g>
 </g>
</svg>
